<svg id="Layer_1" data-name="Layer 1"
    xmlns="http://www.w3.org/2000/svg"
    xmlns:xlink="http://www.w3.org/1999/xlink" width="39.68" height="79.73" viewBox="0 0 39.68 79.73">
    <defs>
        <style>.cls-1{fill:url(#linear-gradient);}</style>
        <linearGradient id="linear-gradient" y1="41.92" x2="79.45" y2="41.92" gradientTransform="matrix(1, 0, 0, -1, 0, 82)" gradientUnits="userSpaceOnUse">
            <stop offset="0" stop-color="#2857a4"/>
            <stop offset="0" stop-color="#275da1"/>
            <stop offset="0.04" stop-color="#246a9b"/>
            <stop offset="0.12" stop-color="#208090"/>
            <stop offset="0.22" stop-color="#1c9187"/>
            <stop offset="0.35" stop-color="#1a9c81"/>
            <stop offset="0.52" stop-color="#18a37e"/>
            <stop offset="1" stop-color="#18a57d"/>
        </linearGradient>
    </defs>
    <title>bulvar</title>
    <path class="cls-1" d="M11.62,1.63C18,2.63,24,4.43,29.3,8.25Q41,16.73,39.44,31.18a24.91,24.91,0,0,1-2.36,8.27,2.23,2.23,0,0,0,0,2.1c3.34,7.6,3.66,15.22-.23,22.73-2.76,5.34-7.27,8.87-12.62,11.38a45.3,45.3,0,0,1-16.09,4c-2,.14-4,.21-6,.28A2,2,0,0,1,0,78.05V52.94a2,2,0,0,1,2-2c2.23,0,4.45-.09,6.66-.22,5.09-.3,10.15-.79,15-2.74a15.36,15.36,0,0,0,7.78-7,1.49,1.49,0,0,0-.07-1.24c-2.67-4.85-7.08-7.13-12.26-8.26a75,75,0,0,0-15.9-1.43H.07c0-.47-.07-.85-.07-1.23V2.25a2,2,0,0,1,2-2,1.8,1.8,0,0,1,.4,0C5.45.84,8.56,1.17,11.62,1.63ZM34,35.63a22.16,22.16,0,0,0,1-12.86c-1.62-6.89-6.2-11.27-12.3-14.29A42,42,0,0,0,8.78,4.63c-1.51-.18-3-.21-4.56-.32V25.05c4.11.36,8.14.59,12.13,1.09a29.41,29.41,0,0,1,11.58,3.65A21,21,0,0,1,34,35.58ZM4.2,75.55A47.78,47.78,0,0,0,19,73.05a27.1,27.1,0,0,0,11.14-6.86,19.57,19.57,0,0,0,5.18-16.48,52.1,52.1,0,0,0-1.15-5.21,2.59,2.59,0,0,0-.46.26c-.13.15-.25.31-.37.47a19,19,0,0,1-7.45,6C21,53.33,15.71,54.05,10.4,54.36c-2,.14-4.09.22-6.2.33Z" transform="translate(0 -0.22)"/>
</svg>