<svg id="Layer_1" data-name="Layer 1" xmlns="http://www.w3.org/2000/svg" xmlns:xlink="http://www.w3.org/1999/xlink" width="79.89" height="80.16" viewBox="0 0 79.89 80.16">
    <defs>
        <style>
            .cls-1 {
                fill: #fdfefe;
            }
            .cls-2 {
                fill: url(#linear-gradient);
            }
        </style>
        <linearGradient id="linear-gradient" x1="0.44" y1="40.08" x2="79.89" y2="40.08" gradientUnits="userSpaceOnUse">
            <stop offset="0" stop-color="#2857a4" />
            <stop offset="0" stop-color="#275da1" />
            <stop offset="0.04" stop-color="#246a9b" />
            <stop offset="0.12" stop-color="#208090" />
            <stop offset="0.22" stop-color="#1c9187" />
            <stop offset="0.35" stop-color="#1a9c81" />
            <stop offset="0.52" stop-color="#18a37e" />
            <stop offset="1" stop-color="#18a57d" />
        </linearGradient>
    </defs>
    <title>bulvar</title>
    <path
        class="cls-1"
        d="M6.77,0h34V80.16H.1Q.1,40.56.13,1c0-.3-.49-1,.45-.95A8.28,8.28,0,0,0,.35,1.39q0,13.38,0,26.78c0,.38,0,.77.07,1.24,1.13,0,2.16,0,3.18,0a75.41,75.41,0,0,1,15.93,1.47c5.19,1.14,9.62,3.44,12.29,8.33a1.5,1.5,0,0,1,.08,1.24,15.42,15.42,0,0,1-7.81,7c-4.81,2-9.89,2.46-15,2.76-2.87.18-5.75.19-8.67.28v29.3c2.76-.12,5.44-.18,8.12-.37a45.25,45.25,0,0,0,16.14-4.08c5.36-2.54,9.88-6.09,12.65-11.48,3.9-7.57,3.58-15.25.23-22.91a2.27,2.27,0,0,1,0-2.12,25.12,25.12,0,0,0,2.37-8.33Q41.49,16,29.73,7.4C24.45,3.55,18.37,1.7,12,.73,10.26.47,8.51.25,6.77,0Z"
    />
    <path
        class="cls-2"
        d="M12.06,1.58c6.36,1,12.42,2.8,17.68,6.62q11.72,8.48,10.14,22.93a24.78,24.78,0,0,1-2.36,8.27,2.23,2.23,0,0,0,0,2.1c3.34,7.6,3.66,15.22-.23,22.73-2.76,5.34-7.27,8.87-12.62,11.38a45.26,45.26,0,0,1-16.09,4c-2,.14-4,.21-6,.28a2,2,0,0,1-2.11-2v-25a2,2,0,0,1,2-2c2.23,0,4.45-.09,6.66-.22,5.09-.3,10.15-.79,15-2.74a15.33,15.33,0,0,0,7.78-7,1.5,1.5,0,0,0-.07-1.24c-2.67-4.85-7.08-7.13-12.26-8.26A75.6,75.6,0,0,0,3.68,30H.51c0-.47-.07-.85-.07-1.23q0-13.28,0-26.57a2,2,0,0,1,2.37-2C5.89.79,9,1.12,12.06,1.58Zm22.39,34a22.15,22.15,0,0,0,1-12.86c-1.62-6.89-6.2-11.27-12.3-14.29A42,42,0,0,0,9.22,4.58c-1.51-.18-3-.21-4.56-.32V25c4.11.36,8.14.59,12.13,1.09a29.4,29.4,0,0,1,11.58,3.65A21,21,0,0,1,34.45,35.53ZM4.64,75.5A48,48,0,0,0,19.44,73a27.1,27.1,0,0,0,11.14-6.86,19.56,19.56,0,0,0,5.18-16.48,52.06,52.06,0,0,0-1.15-5.21,2.52,2.52,0,0,0-.46.26c-.13.15-.25.31-.37.47a19,19,0,0,1-7.45,5.95C21.4,53.28,16.15,54,10.84,54.31c-2,.14-4.09.22-6.2.33ZM79.89,49.66"
    />
    <path class="cls-1" d="M34.45,35.53a21,21,0,0,0-6.08-5.75,29.4,29.4,0,0,0-11.58-3.65c-4-.5-8-.73-12.13-1.09V4.26c1.52.11,3.05.14,4.56.32a42,42,0,0,1,13.89,3.8c6.1,3,10.68,7.4,12.3,14.29A22.15,22.15,0,0,1,34.45,35.53Z" />
    <path
        class="cls-1"
        d="M4.64,75.5V54.64c2.11-.11,4.16-.19,6.2-.33,5.31-.36,10.56-1,15.49-3.23a19,19,0,0,0,7.45-5.95c.12-.16.24-.32.37-.47a2.52,2.52,0,0,1,.46-.26,52.06,52.06,0,0,1,1.15,5.21,19.56,19.56,0,0,1-5.18,16.48A27.1,27.1,0,0,1,19.44,73,48,48,0,0,1,4.64,75.5Z"
    />
</svg>
